<svg xmlns="http://www.w3.org/2000/svg" viewBox="0 0 140 140" height="140" width="140"><g transform="matrix(2.8,0,0,2.8,0,0)"><defs><style>.a{fill:#fff}.b{fill:#f0f0f0}.c{fill:none;stroke:#45413c;stroke-linecap:round;stroke-linejoin:round;stroke-width:1.25px}.d{fill:#45413c}.e{fill:#ff866e}</style></defs><path class="a" d="M25.126 18.691a6.222 6.222 0 0 1 .715.046 8.864 8.864 0 0 1 17.474-1.389 5.458 5.458 0 0 1-.441 10.9H25.126c-3.016 0-5.46-2.139-5.46-4.778s2.444-4.779 5.46-4.779z"></path><path class="b" d="M43.076 28.237a8.608 8.608 0 0 0-8.32-4.808.921.921 0 0 1-.925-.826 14 14 0 0 0-5.551-9.354 8.841 8.841 0 0 0-2.439 5.488 6 6 0 0 0-.714-.046c-3.016 0-5.461 2.139-5.461 4.778s2.445 4.778 5.461 4.778h17.747c.068 0 .135-.008.202-.01z"></path><path class="c" d="M25.126 18.691a6.222 6.222 0 0 1 .715.046 8.864 8.864 0 0 1 17.474-1.389 5.458 5.458 0 0 1-.441 10.9H25.126c-3.016 0-5.46-2.139-5.46-4.778s2.444-4.779 5.46-4.779z"></path><path class="b" d="M32.491 26.807a8.235 8.235 0 0 0-.949.061 11.774 11.774 0 0 0-23.209-1.844A7.25 7.25 0 0 0 8.919 39.5h23.572c4.006 0 7.253-2.841 7.253-6.346s-3.244-6.347-7.253-6.347z"></path><path class="a" d="M8.333 29.557A11.774 11.774 0 0 1 31.542 31.4a8.235 8.235 0 0 1 .949-.061 7.286 7.286 0 0 1 6.769 4.08 5.638 5.638 0 0 0 .484-2.266c0-3.506-3.247-6.347-7.253-6.347a8.235 8.235 0 0 0-.949.061 11.774 11.774 0 0 0-23.209-1.843 7.241 7.241 0 0 0-6.3 9.494 7.254 7.254 0 0 1 6.3-4.961z"></path><path class="c" d="M32.491 26.807a8.235 8.235 0 0 0-.949.061 11.774 11.774 0 0 0-23.209-1.844A7.25 7.25 0 0 0 8.919 39.5h23.572c4.006 0 7.253-2.841 7.253-6.346s-3.244-6.347-7.253-6.347z"></path><circle class="d" cx="24.229" cy="29.407" r=".907"></circle><circle class="d" cx="15.446" cy="29.584" r=".907"></circle><path class="c" d="M17.179 33.066a2.66 2.66 0 0 0 5.223 0"></path><circle class="e" cx="13.216" cy="33.82" r="1"></circle><circle class="e" cx="26.666" cy="32.82" r="1"></circle></g></svg>