<svg xmlns="http://www.w3.org/2000/svg" viewBox="0 0 140 140" height="140" width="140"><g transform="matrix(2.8,0,0,2.8,0,0)"><defs><style>.g{stroke:#45413c;stroke-linecap:round;stroke-linejoin:round;stroke-width:1.25px;fill:none}.h{fill:#45413c}.i{fill:#ff866e}</style></defs><path d="m47.982 18.182-1.631 1.27a1.39 1.39 0 0 0-.434 1.62l.777 1.912a1.39 1.39 0 0 1-1.1 1.9l-2.044.281a1.391 1.391 0 0 0-1.188 1.187l-.279 2.048a1.39 1.39 0 0 1-1.9 1.1l-1.913-.778a1.39 1.39 0 0 0-1.62.434l-1.269 1.631a1.39 1.39 0 0 1-2.194 0l-1.27-1.631a1.389 1.389 0 0 0-1.619-.434l-1.913.777a1.389 1.389 0 0 1-1.9-1.1l-.285-2.046a1.391 1.391 0 0 0-1.187-1.188l-2.044-.281a1.389 1.389 0 0 1-1.1-1.9l.777-1.913a1.39 1.39 0 0 0-.434-1.62l-1.631-1.269a1.391 1.391 0 0 1 0-2.194l1.631-1.27a1.39 1.39 0 0 0 .434-1.62l-.777-1.912a1.39 1.39 0 0 1 1.1-1.9L25.016 9A1.391 1.391 0 0 0 26.2 7.817l.281-2.044a1.39 1.39 0 0 1 1.9-1.1l1.913.778a1.39 1.39 0 0 0 1.62-.434l1.269-1.631a1.39 1.39 0 0 1 2.194 0l1.27 1.631a1.39 1.39 0 0 0 1.62.434l1.912-.777a1.39 1.39 0 0 1 1.9 1.1l.281 2.044a1.391 1.391 0 0 0 1.187 1.188l2.044.281a1.39 1.39 0 0 1 1.1 1.9l-.774 1.913a1.39 1.39 0 0 0 .434 1.62l1.631 1.269a1.39 1.39 0 0 1 0 2.193z" style="stroke-linecap:round;stroke-linejoin:round;stroke-width:1.25px;stroke:#45413c;fill:#ff8a14"></path><circle cx="34.284" cy="17.085" r="11.303" style="fill:#eb6d00"></circle><circle cx="34.284" cy="17.085" r="10.414" style="fill:#ffe500"></circle><path d="M34.284 9.181a10.411 10.411 0 0 1 10.331 9.159 10.414 10.414 0 1 0-20.662 0 10.411 10.411 0 0 1 10.331-9.159z" style="fill:#fff48c"></path><path d="M32.308 21.424a8.254 8.254 0 0 0-.95.06A11.774 11.774 0 0 0 8.149 19.64a7.25 7.25 0 0 0 .586 14.476h23.573c4.005 0 7.253-2.841 7.253-6.346s-3.248-6.346-7.253-6.346z" style="fill:#f0f0f0"></path><path d="M8.149 24.173a11.774 11.774 0 0 1 23.209 1.844 8.485 8.485 0 0 1 .95-.06 7.284 7.284 0 0 1 6.768 4.08 5.64 5.64 0 0 0 .485-2.267c0-3.5-3.248-6.346-7.253-6.346a8.254 8.254 0 0 0-.95.06A11.774 11.774 0 0 0 8.149 19.64a7.238 7.238 0 0 0-6.3 9.494 7.252 7.252 0 0 1 6.3-4.961z" style="fill:#fff"></path><path class="g" d="M32.308 21.424a8.254 8.254 0 0 0-.95.06A11.774 11.774 0 0 0 8.149 19.64a7.25 7.25 0 0 0 .586 14.476h23.573c4.005 0 7.253-2.841 7.253-6.346s-3.248-6.346-7.253-6.346z"></path><circle class="h" cx="24.045" cy="24.023" r=".907"></circle><circle class="h" cx="15.262" cy="24.201" r=".907"></circle><circle class="i" cx="13.033" cy="28.436" r="1"></circle><circle class="i" cx="26.482" cy="27.436" r="1"></circle><path class="g" d="M17.962 28.149h4"></path><path d="M10.118 42.911A3 3 0 1 1 4.7 40.334c.545-1.144 3.35-2.955 4.638-3.742a.5.5 0 0 1 .757.36c.205 1.496.567 4.814.023 5.959zm21.115-.368a3 3 0 1 1-5.419-2.577c.545-1.144 3.349-2.955 4.638-3.742a.5.5 0 0 1 .757.36c.202 1.496.568 4.816.024 5.959zm-10.995 2.894a3 3 0 0 1-5.419-2.577c.544-1.145 3.349-2.955 4.638-3.743a.5.5 0 0 1 .757.36c.202 1.497.568 4.815.024 5.96z" style="fill:#80ddff;stroke:#00b8f0;stroke-linecap:round;stroke-linejoin:round;stroke-width:1.25px"></path></g></svg>