<svg xmlns="http://www.w3.org/2000/svg" viewBox="0 0 140 140" height="140" width="140"><g transform="matrix(2.8,0,0,2.8,0,0)"><defs><style>.c{fill:none;stroke:#45413c;stroke-linecap:round;stroke-linejoin:round;stroke-width:1.25px}.d{fill:#45413c}.e{fill:#ff866e}</style></defs><path d="M39.163 15.074a9.952 9.952 0 0 0-1.14.073 14.149 14.149 0 0 0-27.891-2.216 8.712 8.712 0 0 0 .705 17.4h28.326c4.814 0 8.716-3.414 8.716-7.627s-3.902-7.63-8.716-7.63z" style="fill:#bdbec0"></path><path d="M10.132 18.378a14.149 14.149 0 0 1 27.891 2.216 9.952 9.952 0 0 1 1.14-.073 8.754 8.754 0 0 1 8.134 4.9 6.761 6.761 0 0 0 .582-2.724c0-4.212-3.9-7.626-8.716-7.626a9.952 9.952 0 0 0-1.14.073 14.149 14.149 0 0 0-27.891-2.216 8.7 8.7 0 0 0-7.57 11.408 8.718 8.718 0 0 1 7.57-5.958z" style="fill:#e0e0e0"></path><path class="c" d="M39.163 15.074a9.952 9.952 0 0 0-1.14.073 14.149 14.149 0 0 0-27.891-2.216 8.712 8.712 0 0 0 .705 17.4h28.326c4.814 0 8.716-3.414 8.716-7.627s-3.902-7.63-8.716-7.63z"></path><circle class="d" cx="29.556" cy="18.089" r="1.089"></circle><circle class="d" cx="19.002" cy="18.303" r="1.089"></circle><path class="c" d="M21.084 25.074a3.2 3.2 0 0 1 6.277 0"></path><circle class="e" cx="16.322" cy="23.393" r="1.202"></circle><circle class="e" cx="32.484" cy="22.191" r="1.202"></circle><path class="c" d="M10.132 12.931c.173-.011.6-.057.773-.057a8.676 8.676 0 0 1 4.48 1.238"></path><path d="M8.68 39.054a2.794 2.794 0 0 1-5.047-2.4c.507-1.066 3.119-2.752 4.319-3.485a.464.464 0 0 1 .705.335c.189 1.396.529 4.484.023 5.55zm5.587 7.351a2.794 2.794 0 1 1-5.046-2.4c.507-1.066 3.119-2.752 4.319-3.486a.464.464 0 0 1 .705.335c.188 1.395.529 4.485.022 5.551zm13.97 0a2.794 2.794 0 1 1-5.046-2.4c.507-1.066 3.119-2.752 4.319-3.486a.465.465 0 0 1 .7.335c.19 1.395.534 4.485.027 5.551zm8.382-7.45a2.794 2.794 0 0 1-5.047-2.4c.507-1.066 3.119-2.752 4.319-3.485a.464.464 0 0 1 .7.335c.194 1.395.535 4.484.028 5.55zm-14.897.099a2.794 2.794 0 1 1-5.046-2.4C17.183 35.588 19.8 33.9 21 33.169a.464.464 0 0 1 .7.335c.188 1.396.529 4.484.022 5.55z" style="fill:#80ddff;stroke:#00b8f0;stroke-linecap:round;stroke-linejoin:round;stroke-width:1.25px"></path></g></svg>