<svg xmlns="http://www.w3.org/2000/svg" viewBox="0 0 140 140" height="140" width="140"><g transform="matrix(2.8,0,0,2.8,0,0)"><defs><style>.h{stroke:#45413c;stroke-linecap:round;stroke-linejoin:round;stroke-width:1.25px}.f{fill:#f0f0f0}.g{fill:#fff}.h{fill:none}.i{fill:#ff866e}</style></defs><path d="m42.959 24.248-2.1 1.636a1.789 1.789 0 0 0-.559 2.086l1 2.463a1.79 1.79 0 0 1-1.414 2.447l-2.633.362a1.788 1.788 0 0 0-1.529 1.529l-.361 2.629a1.791 1.791 0 0 1-2.447 1.414l-2.463-1a1.789 1.789 0 0 0-2.086.558l-1.636 2.1a1.789 1.789 0 0 1-2.824 0l-1.635-2.1a1.791 1.791 0 0 0-2.087-.558l-2.463 1a1.791 1.791 0 0 1-2.447-1.414l-.362-2.632a1.788 1.788 0 0 0-1.529-1.529l-2.632-.363a1.79 1.79 0 0 1-1.415-2.447l1-2.462a1.79 1.79 0 0 0-.558-2.087l-2.1-1.635a1.789 1.789 0 0 1 0-2.824l2.1-1.636a1.789 1.789 0 0 0 .558-2.086l-1-2.463a1.789 1.789 0 0 1 1.414-2.447l2.632-.362a1.791 1.791 0 0 0 1.53-1.529l.362-2.633a1.79 1.79 0 0 1 2.447-1.414l2.463 1a1.789 1.789 0 0 0 2.087-.551l1.635-2.1a1.79 1.79 0 0 1 2.824 0l1.636 2.1a1.789 1.789 0 0 0 2.086.558l2.463-1a1.79 1.79 0 0 1 2.447 1.415l.362 2.632a1.79 1.79 0 0 0 1.529 1.529l2.633.363A1.79 1.79 0 0 1 41.3 15.24l-1 2.462a1.79 1.79 0 0 0 .558 2.087l2.1 1.635a1.79 1.79 0 0 1 .001 2.824z" style="stroke:#45413c;stroke-linecap:round;stroke-linejoin:round;stroke-width:1.25px;fill:#ff8a14"></path><circle cx="25.319" cy="22.836" r="14.556" style="fill:#eb6d00"></circle><circle cx="25.319" cy="22.836" r="13.411" style="fill:#ffe500"></circle><path d="M25.319 12.658a13.406 13.406 0 0 1 13.3 11.794 13.411 13.411 0 1 0-26.608 0 13.406 13.406 0 0 1 13.308-11.794z" style="fill:#fff48c"></path><path d="M16.938 25.262c-1.911-1-2.818-2.352-4.1-4.192a1.121 1.121 0 0 1 .914-1.764h9.891a1.049 1.049 0 0 1 1.031 1.255 9.447 9.447 0 0 1-.976 2.664 5.109 5.109 0 0 1-6.76 2.037zm16.762 0c1.911-1 2.817-2.352 4.1-4.192a1.121 1.121 0 0 0-.914-1.764H27a1.049 1.049 0 0 0-1.031 1.255 9.478 9.478 0 0 0 .976 2.664 5.11 5.11 0 0 0 6.755 2.037z" style="fill:#45413c"></path><path class="f" d="M22.531 37.063a5.453 5.453 0 0 0-.631.04 7.82 7.82 0 0 0-15.416-1.225 4.816 4.816 0 0 0 .389 9.616h15.658c2.66 0 4.817-1.887 4.817-4.216s-2.157-4.215-4.817-4.215z"></path><path class="g" d="M5.716 39.616a1.357 1.357 0 0 0 .98-.866 7.82 7.82 0 0 1 15.059.923 1.307 1.307 0 0 0 1.211 1.014 4.862 4.862 0 0 1 3.912 2.4 3.753 3.753 0 0 0 .47-1.807c0-2.328-2.157-4.215-4.817-4.215a5.453 5.453 0 0 0-.631.04 7.82 7.82 0 0 0-15.416-1.227 4.809 4.809 0 0 0-4.076 6.6 4.823 4.823 0 0 1 3.308-2.862z"></path><path class="h" d="M22.531 37.063a5.453 5.453 0 0 0-.631.04 7.82 7.82 0 0 0-15.416-1.225 4.816 4.816 0 0 0 .389 9.616h15.658c2.66 0 4.817-1.887 4.817-4.216s-2.157-4.215-4.817-4.215z"></path><path class="f" d="M44.458 33.835a3.809 3.809 0 0 0-.456.03 5.66 5.66 0 0 0-11.157-.887 3.485 3.485 0 0 0 .281 6.959h11.332a3.291 3.291 0 0 0 3.487-3.051 3.291 3.291 0 0 0-3.487-3.051z"></path><path class="g" d="M32.289 35.683a.984.984 0 0 0 .71-.627 5.66 5.66 0 0 1 10.9.668.945.945 0 0 0 .876.734 3.523 3.523 0 0 1 2.832 1.736 2.722 2.722 0 0 0 .34-1.308 3.291 3.291 0 0 0-3.487-3.051 3.809 3.809 0 0 0-.456.03 5.66 5.66 0 0 0-11.157-.887 3.481 3.481 0 0 0-2.95 4.778 3.5 3.5 0 0 1 2.392-2.073z"></path><path class="h" d="M44.458 33.835a3.809 3.809 0 0 0-.456.03 5.66 5.66 0 0 0-11.157-.887 3.485 3.485 0 0 0 .281 6.959h11.332a3.291 3.291 0 0 0 3.487-3.051 3.291 3.291 0 0 0-3.487-3.051zm-21.676-7.078a2.444 2.444 0 0 0 4.8 0"></path><circle class="i" cx="19.142" cy="27.449" r=".919"></circle><circle class="i" cx="31.496" cy="27.449" r=".919"></circle></g></svg>