<svg xmlns="http://www.w3.org/2000/svg" viewBox="0 0 140 140" height="140" width="140"><g transform="matrix(2.8,0,0,2.8,0,0)"><defs><style>.a{fill:#46b000}.b{fill:#6dd627}.c,.e{fill:none;stroke-linecap:round;stroke-linejoin:round;stroke-width:1.25px}.c{stroke:#45413c}.d{fill:#9ceb60}.e{stroke:#46b000}</style></defs><path class="a" d="M11.516 6.378a1.138 1.138 0 0 1-.11-2.122c14.763-6.263 22.53 8.421 14.152 10.423C19.881 16.036 19 8.834 11.516 6.378z"></path><path class="b" d="M11.406 4.256A1.127 1.127 0 0 0 11 6.025c10.8-4.223 17.691 2.8 16.933 7.4 3.978-4.054-3.586-14.659-16.527-9.169z"></path><path class="c" d="M11.516 6.378a1.138 1.138 0 0 1-.11-2.122c14.763-6.263 22.53 8.421 14.152 10.423C19.881 16.036 19 8.834 11.516 6.378z"></path><path class="b" d="M42.325 4.726a1.149 1.149 0 0 0-.111-2.135c-17.88-5.919-23.673 12.966-13.995 14.155 6.596.811 5.99-8.146 14.106-12.02z"></path><path class="d" d="M42.7 4.439a1.137 1.137 0 0 0-.481-1.848C27.179-2.386 20.7 10.172 24.765 15 23.374 9.517 29.792.464 42.7 4.439z"></path><path class="c" d="M42.325 4.726a1.149 1.149 0 0 0-.111-2.135c-17.88-5.919-23.673 12.966-13.995 14.155 6.596.811 5.99-8.146 14.106-12.02z"></path><path class="e" d="M27.994 16.715v-2.94s0-5.029 3.017-7.04"></path><path d="M24.1 21.2s3.53 5.295 4.412 10.59a79.536 79.536 0 0 1 .883 14.119s.882 2.648 6.177 2.648 6.177-2.648 6.177-2.648 0-10.59-4.412-17.649a52.8 52.8 0 0 0-9.707-11.473z" style="fill:#bf8256"></path><path d="M37.334 28.258a52.8 52.8 0 0 0-9.707-11.473L25.9 18.942a54.476 54.476 0 0 1 8.432 10.316c4.412 7.059 4.412 17.649 4.412 17.649a3.355 3.355 0 0 1-1.415 1.536c3.736-.5 4.415-2.536 4.415-2.536s.002-10.59-4.41-17.649z" style="fill:#dea47a"></path><path class="c" d="M24.1 21.2s3.53 5.295 4.412 10.59a79.536 79.536 0 0 1 .883 14.119s.882 2.648 6.177 2.648 6.177-2.648 6.177-2.648 0-10.59-4.412-17.649a52.8 52.8 0 0 0-9.707-11.473z"></path><path class="b" d="M45.038 24.716a1.137 1.137 0 0 0 1.846-1.028C44.61 7.912 25.342 9.521 27.994 18.8c1.821 6.379 10.242.382 17.044 5.916z"></path><path class="d" d="M27.868 16.069c3.743-4.363 15.714-2.9 17.884 8.9a1.126 1.126 0 0 0 1.132-1.277C44.857 9.625 29.339 9.383 27.868 16.069z"></path><path class="c" d="M45.038 24.716a1.137 1.137 0 0 0 1.846-1.028C44.61 7.912 25.342 9.521 27.994 18.8c1.821 6.379 10.242.382 17.044 5.916z"></path><path class="a" d="M4.891 26.8a1.148 1.148 0 0 1-1.738-1.272C8.543 7.09 27.867 11.585 23.27 20.6c-3.136 6.152-10.389 1.11-18.379 6.2z"></path><path class="b" d="M23.439 15.868c-2.788-5.157-15.98-5.068-20.286 9.663A1.148 1.148 0 0 0 4.891 26.8c.208-.133.416-.255.623-.374C9.4 15 18.88 13.186 23.439 15.868z"></path><path class="c" d="M4.891 26.8a1.148 1.148 0 0 1-1.738-1.272C8.543 7.09 27.867 11.585 23.27 20.6c-3.136 6.152-10.389 1.11-18.379 6.2z"></path><path class="e" d="m27.823 16.223 2.182-.437a12.432 12.432 0 0 1 9.051 2.014"></path><path class="c" d="M27.338 27.605c1.89.659 6.766-2.214 6.766-3.931M28.893 34.5c2.337 1.42 9.207-.419 10.207-2.712m-9.723 8.757c1.742 3.094 11.949 2.557 11.754-.948"></path><path class="b" d="M18.288 35.169a1.139 1.139 0 0 1-2.173-.232c-1.468-8.38-3.209-26.637 10.873-21.162 7.612 2.958-3.561 9.657-8.7 21.394z"></path><path class="d" d="M26.988 13.775c-.159-.062-.306-.105-.461-.161 4.2 3.3-5.537 9.817-10.239 20.555a1.18 1.18 0 0 1-.243.356l.07.412a1.139 1.139 0 0 0 2.173.232c5.139-11.737 16.312-18.436 8.7-21.394z"></path><path class="e" d="m26.169 13.477-1.192.3s-4.023 1-6.035 9.051"></path><path class="c" d="M18.288 35.169a1.139 1.139 0 0 1-2.173-.232c-1.468-8.38-3.209-26.637 10.873-21.162 7.612 2.958-3.561 9.657-8.7 21.394z"></path></g></svg>