<svg xmlns="http://www.w3.org/2000/svg" viewBox="0 0 140 140" height="140" width="140"><g transform="matrix(2.8,0,0,2.8,0,0)"><defs><style>.h{stroke:#45413c;stroke-linecap:round;stroke-linejoin:round;stroke-width:1.25px}.e{fill:#45413c}.h{fill:none}.i{fill:#ff866e}</style></defs><path d="m47.712 24.518-1.82 1.417a1.55 1.55 0 0 0-.484 1.808l.867 2.135A1.552 1.552 0 0 1 45.049 32l-2.281.314a1.551 1.551 0 0 0-1.326 1.325l-.314 2.281a1.55 1.55 0 0 1-2.12 1.226l-2.135-.867a1.55 1.55 0 0 0-1.808.484l-1.417 1.82a1.551 1.551 0 0 1-2.448 0l-1.418-1.82a1.551 1.551 0 0 0-1.808-.485l-2.134.868a1.551 1.551 0 0 1-2.121-1.226l-.314-2.281a1.552 1.552 0 0 0-1.325-1.326L19.8 32a1.551 1.551 0 0 1-1.225-2.12l.867-2.135a1.551 1.551 0 0 0-.484-1.808l-1.82-1.417a1.551 1.551 0 0 1 0-2.448l1.82-1.418a1.55 1.55 0 0 0 .484-1.808l-.867-2.134a1.551 1.551 0 0 1 1.225-2.123l2.282-.314a1.551 1.551 0 0 0 1.325-1.326l.314-2.281a1.552 1.552 0 0 1 2.119-1.226l2.135.868a1.552 1.552 0 0 0 1.808-.484l1.417-1.82a1.551 1.551 0 0 1 2.448 0l1.417 1.82a1.552 1.552 0 0 0 1.808.484l2.135-.867a1.551 1.551 0 0 1 2.121 1.225l.314 2.282a1.551 1.551 0 0 0 1.325 1.325l2.281.314a1.551 1.551 0 0 1 1.226 2.121l-.867 2.135a1.55 1.55 0 0 0 .484 1.808l1.82 1.417a1.551 1.551 0 0 1 0 2.448z" style="stroke:#45413c;stroke-linecap:round;stroke-linejoin:round;stroke-width:1.25px;fill:#ff8a14"></path><circle cx="32.424" cy="23.294" r="12.615" style="fill:#eb6d00"></circle><circle cx="32.424" cy="23.294" r="11.623" style="fill:#ffe500"></circle><path d="M32.424 14.472A11.62 11.62 0 0 1 43.955 24.7a11.786 11.786 0 0 0 .092-1.4 11.623 11.623 0 1 0-23.246 0 11.786 11.786 0 0 0 .092 1.4 11.62 11.62 0 0 1 11.531-10.228z" style="fill:#fff48c"></path><path class="e" d="M23.893 25.4c-1.656-.863-2.442-2.039-3.554-3.634a.971.971 0 0 1 .791-1.529h8.57a.91.91 0 0 1 .894 1.088 8.243 8.243 0 0 1-.846 2.309 4.429 4.429 0 0 1-5.855 1.766zm14.529 0c1.656-.863 2.442-2.039 3.554-3.634a.972.972 0 0 0-.792-1.529h-8.572a.91.91 0 0 0-.894 1.088 8.243 8.243 0 0 0 .846 2.309 4.429 4.429 0 0 0 5.858 1.766z"></path><path d="M31.6 30.278a7.974 7.974 0 0 0-.921.059 11.423 11.423 0 0 0-22.518-1.79 7.034 7.034 0 0 0 .569 14.046H31.6c3.887 0 7.037-2.757 7.037-6.158s-3.153-6.157-7.037-6.157z" style="fill:#f0f0f0"></path><path d="M7.037 34.007a1.984 1.984 0 0 0 1.432-1.265 11.422 11.422 0 0 1 21.995 1.348 1.911 1.911 0 0 0 1.769 1.481 7.107 7.107 0 0 1 5.715 3.5 5.5 5.5 0 0 0 .686-2.639c0-3.4-3.15-6.157-7.037-6.157a7.974 7.974 0 0 0-.921.059 11.423 11.423 0 0 0-22.518-1.79 7.026 7.026 0 0 0-5.953 9.644 7.049 7.049 0 0 1 4.832-4.181z" style="fill:#fff"></path><path class="h" d="M31.6 30.278a7.974 7.974 0 0 0-.921.059 11.423 11.423 0 0 0-22.518-1.79 7.034 7.034 0 0 0 .569 14.046H31.6c3.887 0 7.037-2.757 7.037-6.158s-3.153-6.157-7.037-6.157z"></path><circle class="e" cx="25.66" cy="32.917" r=".88"></circle><circle class="e" cx="17.138" cy="33.089" r=".88"></circle><path class="h" d="M18.819 36.467a2.581 2.581 0 0 0 5.068 0"></path><circle class="i" cx="14.975" cy="37.198" r=".97"></circle><circle class="i" cx="28.024" cy="36.228" r=".97"></circle></g></svg>