<svg xmlns="http://www.w3.org/2000/svg" viewBox="0 0 140 140" height="140" width="140"><g transform="matrix(2.8,0,0,2.8,0,0)"><defs><style>.f{fill:#f0f0f0}.c{fill:none}.c,.f{stroke:#45413c;stroke-linecap:round;stroke-linejoin:round;stroke-width:1.25px}.d{fill:#45413c}.e{fill:#ff866e}</style></defs><path d="M39.284 16.074a9.955 9.955 0 0 0-1.141.073 14.148 14.148 0 0 0-27.89-2.216 8.712 8.712 0 0 0 .7 17.4h28.331C44.1 31.327 48 27.913 48 23.7s-3.9-7.626-8.716-7.626z" style="fill:#f0f0f0"></path><path d="M10.253 19.378a14.148 14.148 0 0 1 27.89 2.216 9.955 9.955 0 0 1 1.141-.073 8.752 8.752 0 0 1 8.133 4.9A6.762 6.762 0 0 0 48 23.7c0-4.212-3.9-7.626-8.716-7.626a9.955 9.955 0 0 0-1.141.073 14.148 14.148 0 0 0-27.89-2.216 8.7 8.7 0 0 0-7.57 11.408 8.716 8.716 0 0 1 7.57-5.961z" style="fill:#fff"></path><path class="c" d="M39.284 16.074a9.955 9.955 0 0 0-1.141.073 14.148 14.148 0 0 0-27.89-2.216 8.712 8.712 0 0 0 .7 17.4h28.331C44.1 31.327 48 27.913 48 23.7s-3.9-7.626-8.716-7.626z"></path><circle class="d" cx="30.436" cy="19.342" r="1.089"></circle><circle class="d" cx="19.881" cy="19.556" r="1.089"></circle><path class="c" d="M21.963 23.74a3.2 3.2 0 0 0 6.277 0"></path><circle class="e" cx="17.202" cy="24.646" r="1.202"></circle><circle class="e" cx="33.364" cy="23.444" r="1.202"></circle><path class="c" d="M10.253 13.931c.2-.014.571-.057.773-.057a8.676 8.676 0 0 1 4.48 1.238"></path><circle class="f" cx="11.5" cy="36.5" r="2.5"></circle><circle class="f" cx="4.5" cy="44.5" r="2.5"></circle><circle class="f" cx="17.5" cy="44.5" r="2.5"></circle><circle class="f" cx="31.5" cy="44.5" r="2.5"></circle><circle class="f" cx="44.5" cy="44.5" r="2.5"></circle><circle class="f" cx="25.5" cy="36.5" r="2.5"></circle><circle class="f" cx="38.5" cy="36.5" r="2.5"></circle></g></svg>